<mxfile host="app.diagrams.net" modified="2023-06-05T19:29:10.262Z" agent="Mozilla/5.0 (Windows NT 10.0; Win64; x64) AppleWebKit/537.36 (KHTML, like Gecko) Chrome/114.0.0.0 Safari/537.36" version="21.3.5" etag="04T-NTmec-RTOcYkmuuR" type="github">
  <diagram name="Page-1" id="vg-DC1rpJWw-zE1_29Qk">
    <mxGraphModel>
      <root>
        <mxCell id="0" />
        <mxCell id="1" parent="0" />
      </root>
    </mxGraphModel>
  </diagram>
</mxfile>
